<?xml version="1.0" encoding="UTF-8"?>
<svg width="24" height="24" viewBox="0 0 24 24" fill="none" xmlns="http://www.w3.org/2000/svg">
    <!-- Sparkles -->
    <path d="M20 8L21 7L22 8L21 9L20 8Z" fill="currentColor"/>
    <path d="M18 4L19 3L20 4L19 5L18 4Z" fill="currentColor"/>
    <path d="M22 4L23 3L24 4L23 5L22 4Z" fill="currentColor"/>
    <!-- Coin -->
    <circle cx="12" cy="10" r="6" fill="currentColor" fill-opacity="0.3"/>
    <path d="M12 4C8.68629 4 6 6.68629 6 10C6 13.3137 8.68629 16 12 16C15.3137 16 18 13.3137 18 10C18 6.68629 15.3137 4 12 4ZM12 5C14.7614 5 17 7.23858 17 10C17 12.7614 14.7614 15 12 15C9.23858 15 7 12.7614 7 10C7 7.23858 9.23858 5 12 5Z" fill="currentColor"/>
    <!-- Tap Hand -->
    <path d="M14 13.5V9C14 8.44772 13.5523 8 13 8C12.4477 8 12 8.44772 12 9V13.5L10.2071 11.7071C9.81658 11.3166 9.18342 11.3166 8.79289 11.7071C8.40237 12.0976 8.40237 12.7308 8.79289 13.1213L12.2929 16.6213C12.6834 17.0118 13.3166 17.0118 13.7071 16.6213L17.2071 13.1213C17.5976 12.7308 17.5976 12.0976 17.2071 11.7071C16.8166 11.3166 16.1834 11.3166 15.7929 11.7071L14 13.5Z" fill="currentColor"/>
</svg> 